<svg xmlns="http://www.w3.org/2000/svg" xmlns:xlink="http://www.w3.org/1999/xlink" width="500" zoomAndPan="magnify" viewBox="0 0 375 374.999991" height="500" preserveAspectRatio="xMidYMid meet" version="1.0"><defs><g/><clipPath id="5faff9b679"><path d="M 78.484375 109.007812 L 296 109.007812 L 296 265.757812 L 78.484375 265.757812 Z M 78.484375 109.007812 " clip-rule="nonzero"/></clipPath><clipPath id="52a6b9537e"><path d="M 80 109.007812 L 294 109.007812 L 294 262 L 80 262 Z M 80 109.007812 " clip-rule="nonzero"/></clipPath></defs><g clip-path="url(#5faff9b679)"><path fill="#474646" d="M 270.972656 112.53125 C 266.910156 112.042969 262.902344 111.628906 258.898438 111.210938 C 249.957031 110.308594 241.074219 109.683594 232.191406 109.402344 C 223.074219 109.054688 213.203125 109.125 202.929688 110.65625 C 198.632812 111.28125 193.8125 112.390625 188.878906 114.339844 C 184.117188 116.285156 179.878906 119.203125 176.917969 123.09375 C 175.523438 124.972656 174.535156 127.125 174.074219 129.558594 C 173.722656 131.851562 174.074219 134.144531 175.058594 136.230469 C 177.554688 140.816406 181.445312 144.015625 185.511719 146.097656 C 190.5625 148.949219 195.902344 151.035156 201.011719 152.769531 C 206.992188 154.855469 213.089844 156.664062 219.011719 158.46875 C 225.164062 160.347656 231.203125 162.152344 237.066406 164.167969 C 242.523438 166.042969 247.519531 167.921875 251.871094 170.214844 C 255.414062 172.300781 258.144531 173.757812 258.898438 174.941406 C 259.1875 175.289062 259.421875 175.566406 259.421875 175.636719 C 259.535156 175.707031 259.535156 176.121094 259.59375 176.679688 C 259.886719 179.109375 258.550781 182.03125 256.515625 184.738281 C 253.847656 188.285156 249.085938 191.132812 243.394531 194.121094 C 228.707031 201.488281 210.128906 205.035156 190.039062 207.882812 C 171.054688 210.453125 151.660156 211.566406 132.269531 211.707031 C 126 211.773438 119.785156 211.707031 113.632812 211.496094 C 111.949219 211.425781 110.265625 211.359375 108.582031 211.289062 C 108.175781 211.289062 107.710938 211.21875 107.304688 211.21875 C 107.304688 211.21875 107.246094 211.21875 107.246094 211.21875 C 99.058594 226.648438 89.59375 244.371094 78.507812 265.078125 C 78.621094 265.078125 78.738281 265.078125 78.796875 265.078125 C 79.433594 265.148438 80.074219 265.148438 80.65625 265.21875 C 82.976562 265.359375 85.300781 265.425781 87.5625 265.566406 C 95.808594 265.84375 104.109375 265.984375 112.472656 265.84375 C 138.191406 265.566406 164.375 263.691406 190.445312 259.3125 C 217.210938 255.070312 244.152344 248.121094 267.085938 234.152344 C 276.082031 228.800781 284.269531 221.503906 290.019531 211.84375 C 294.894531 203.644531 296.519531 193.566406 294.371094 182.792969 C 293.5 178.761719 291.761719 174.523438 289.207031 170.355469 C 286.765625 166.601562 283.921875 163.265625 280.785156 160.554688 C 274.167969 154.925781 267.722656 151.3125 262.265625 149.085938 C 255.820312 146.308594 249.726562 144.292969 244.265625 142.695312 C 238.230469 140.886719 232.480469 139.425781 227.023438 138.035156 C 221.738281 136.648438 216.6875 135.394531 212.101562 134.007812 C 208.097656 132.753906 204.554688 131.644531 201.824219 130.253906 C 199.851562 129.070312 198.339844 128.445312 198.398438 127.960938 C 198.398438 127.890625 198.339844 127.890625 198.339844 127.890625 C 198.285156 127.960938 198.398438 127.75 198.515625 127.402344 C 198.574219 126.988281 199.503906 126.363281 200.546875 125.804688 C 202.058594 124.972656 204.554688 124.414062 207.632812 123.859375 C 215.179688 122.46875 223.945312 122.539062 233.234375 122.816406 C 241.945312 123.09375 250.886719 123.859375 260.058594 124.832031 C 264.414062 125.386719 268.769531 125.945312 273.179688 126.5 C 272.425781 121.496094 271.671875 116.839844 270.972656 112.53125 Z M 270.972656 112.53125 " fill-opacity="1" fill-rule="nonzero"/></g><g clip-path="url(#52a6b9537e)"><path fill="#15693e" d="M 271.089844 113.296875 L 258.957031 111.90625 C 250.015625 111.003906 241.132812 110.375 232.25 110.097656 C 223.132812 109.75 213.320312 109.820312 203.21875 111.28125 C 198.980469 111.90625 194.277344 112.949219 189.574219 114.894531 C 185.046875 116.769531 181.039062 119.550781 178.253906 123.234375 C 176.976562 124.972656 176.046875 127.054688 175.640625 129.351562 C 175.351562 131.503906 175.699219 133.589844 176.628906 135.535156 C 179.007812 139.773438 182.722656 142.832031 186.671875 144.847656 C 191.605469 147.558594 196.773438 149.574219 201.824219 151.3125 C 207.746094 153.328125 213.726562 155.132812 219.589844 156.871094 C 225.6875 158.679688 231.726562 160.484375 237.589844 162.5 C 243.046875 164.378906 248.097656 166.253906 252.628906 168.617188 C 256.285156 170.703125 259.304688 172.300781 260.40625 173.898438 C 260.871094 174.453125 261.21875 174.941406 261.335938 175.21875 C 261.570312 175.566406 261.625 176.191406 261.742188 176.957031 C 262.089844 179.875 260.640625 183.140625 258.375 186.199219 C 255.472656 190.023438 250.539062 193.148438 244.617188 196.207031 C 229.460938 203.921875 210.476562 207.535156 190.039062 210.523438 C 170.648438 213.164062 150.964844 214.347656 131.222656 214.484375 C 124.835938 214.554688 118.507812 214.484375 112.296875 214.277344 C 110.554688 214.207031 108.871094 214.136719 107.1875 214.066406 C 106.722656 214.066406 106.316406 214 105.910156 214 C 105.910156 214 105.851562 214 105.851562 214 C 98.535156 227.691406 90.292969 243.257812 80.828125 261.050781 C 80.945312 261.050781 81.003906 261.050781 81.117188 261.050781 C 81.757812 261.117188 82.339844 261.117188 82.917969 261.1875 C 85.183594 261.328125 87.449219 261.398438 89.710938 261.535156 C 97.78125 261.8125 105.96875 261.882812 114.15625 261.8125 C 139.410156 261.535156 165.074219 259.730469 190.5625 255.558594 C 216.804688 251.457031 243.105469 244.785156 265.515625 231.375 C 274.285156 226.230469 282.238281 219.28125 287.871094 210.105469 C 292.574219 202.324219 294.316406 192.800781 292.339844 182.585938 C 291.585938 178.761719 290.019531 174.800781 287.578125 170.839844 C 285.316406 167.296875 282.644531 164.167969 279.683594 161.527344 C 273.414062 156.105469 267.199219 152.632812 261.859375 150.40625 C 255.53125 147.628906 249.492188 145.613281 244.035156 144.015625 C 237.996094 142.207031 232.25 140.679688 226.734375 139.289062 C 221.390625 137.898438 216.339844 136.578125 211.636719 135.117188 C 207.574219 133.867188 203.914062 132.6875 201.070312 131.226562 C 198.980469 130.042969 197.296875 129.210938 197.179688 128.585938 C 197.0625 128.378906 197.007812 128.238281 197.007812 128.167969 C 196.949219 128.03125 197.121094 127.75 197.296875 127.335938 C 197.527344 126.710938 198.632812 125.875 199.910156 125.25 C 201.652344 124.347656 204.320312 123.789062 207.457031 123.164062 C 215.238281 121.773438 224.003906 121.84375 233.351562 122.121094 C 242.0625 122.398438 251 123.164062 260.175781 124.136719 C 264.472656 124.695312 268.828125 125.179688 273.238281 125.734375 C 272.367188 121.21875 271.730469 117.117188 271.089844 113.296875 Z M 271.089844 113.296875 " fill-opacity="1" fill-rule="nonzero"/></g><path fill="#474646" d="M 271.207031 114.058594 C 267.085938 113.574219 263.019531 113.15625 259.015625 112.671875 C 250.074219 111.765625 241.191406 111.140625 232.304688 110.863281 C 223.132812 110.515625 213.4375 110.585938 203.449219 112.042969 C 199.269531 112.671875 194.742188 113.710938 190.214844 115.519531 C 185.859375 117.328125 182.085938 120.035156 179.53125 123.441406 C 178.3125 125.109375 177.441406 127.054688 177.148438 129.140625 C 176.917969 131.15625 177.265625 133.101562 178.136719 134.910156 C 180.34375 138.871094 183.941406 141.789062 187.773438 143.667969 C 192.535156 146.238281 197.644531 148.253906 202.578125 149.921875 C 208.386719 151.9375 214.308594 153.675781 220.171875 155.34375 C 226.210938 157.148438 232.25 158.886719 238.113281 160.902344 C 243.570312 162.777344 248.738281 164.65625 253.324219 167.019531 C 257.15625 169.101562 260.347656 170.910156 261.859375 172.785156 C 262.496094 173.480469 263.019531 174.175781 263.253906 174.730469 C 263.601562 175.359375 263.773438 176.191406 263.832031 177.164062 C 264.238281 180.570312 262.671875 184.253906 260.234375 187.519531 C 257.15625 191.621094 251.929688 194.957031 245.894531 198.152344 C 230.273438 206.144531 210.824219 209.96875 190.039062 212.957031 C 170.296875 215.667969 150.210938 216.847656 130.179688 217.054688 C 123.675781 217.125 117.230469 217.054688 110.902344 216.847656 C 109.160156 216.777344 107.363281 216.710938 105.679688 216.640625 C 105.214844 216.640625 104.808594 216.570312 104.34375 216.570312 C 104.34375 216.570312 104.285156 216.570312 104.285156 216.570312 C 97.898438 228.523438 90.816406 241.867188 82.859375 256.738281 C 82.976562 256.738281 83.035156 256.738281 83.09375 256.738281 C 83.671875 256.808594 84.3125 256.808594 84.894531 256.878906 C 87.097656 257.019531 89.304688 257.085938 91.511719 257.15625 C 99.40625 257.433594 107.421875 257.503906 115.488281 257.433594 C 140.28125 257.15625 165.421875 255.417969 190.386719 251.390625 C 216.164062 247.359375 241.828125 241.035156 263.660156 228.105469 C 272.195312 223.171875 279.914062 216.570312 285.375 207.882812 C 289.960938 200.515625 291.703125 191.480469 289.960938 181.890625 C 289.261719 178.277344 287.8125 174.59375 285.605469 170.910156 C 283.515625 167.574219 281.019531 164.65625 278.289062 162.082031 C 272.367188 156.941406 266.386719 153.535156 261.105469 151.3125 C 254.890625 148.53125 248.96875 146.585938 243.453125 144.917969 C 237.414062 143.109375 231.667969 141.582031 226.152344 140.121094 C 220.753906 138.730469 215.644531 137.34375 210.882812 135.882812 C 206.761719 134.5625 202.988281 133.378906 200.023438 131.851562 C 197.761719 130.601562 196.019531 129.628906 195.671875 128.792969 C 195.496094 128.515625 195.378906 128.238281 195.378906 127.960938 C 195.324219 127.683594 195.496094 127.265625 195.785156 126.707031 C 196.195312 125.804688 197.472656 124.902344 198.980469 124.136719 C 200.953125 123.164062 203.800781 122.539062 206.992188 121.914062 C 214.945312 120.523438 223.828125 120.59375 233.121094 120.800781 C 241.828125 121.078125 250.769531 121.84375 259.941406 122.816406 C 264.238281 123.371094 268.59375 123.859375 272.949219 124.414062 C 272.367188 120.871094 271.789062 117.394531 271.207031 114.058594 Z M 271.207031 114.058594 " fill-opacity="1" fill-rule="nonzero"/><path fill="#15693e" d="M 271.960938 118.714844 C 267.722656 118.230469 263.542969 117.742188 259.421875 117.257812 C 259.421875 117.257812 259.363281 117.257812 259.363281 117.257812 C 259.363281 117.535156 259.421875 117.8125 259.421875 118.089844 C 259.421875 118.089844 259.480469 118.089844 259.480469 118.089844 C 263.660156 118.578125 267.839844 119.0625 272.078125 119.550781 C 272.078125 119.273438 272.019531 118.996094 271.960938 118.714844 Z M 246.996094 116.074219 C 242.929688 115.796875 238.867188 115.519531 234.859375 115.378906 C 234.859375 115.660156 234.917969 115.9375 234.917969 116.214844 C 238.925781 116.355469 242.988281 116.632812 247.054688 116.910156 C 247.054688 116.632812 246.996094 116.355469 246.996094 116.074219 Z M 222.785156 115.171875 C 218.777344 115.171875 214.773438 115.378906 210.824219 115.726562 C 210.882812 116.007812 210.941406 116.285156 211 116.5625 C 214.886719 116.214844 218.894531 116.007812 222.84375 116.007812 C 222.84375 115.726562 222.84375 115.449219 222.785156 115.171875 Z M 198.921875 117.742188 C 197.238281 118.230469 195.671875 118.714844 194.101562 119.410156 C 191.953125 120.382812 190.039062 121.566406 188.53125 123.027344 C 188.9375 123.164062 189.34375 123.304688 189.691406 123.511719 C 191.027344 122.191406 192.824219 121.011719 194.800781 120.175781 C 196.25 119.550781 197.761719 118.996094 199.386719 118.578125 C 199.210938 118.300781 199.039062 118.023438 198.921875 117.742188 Z M 186.324219 132.058594 C 186.324219 132.128906 186.382812 132.128906 186.382812 132.199219 C 187.773438 134.703125 190.5625 136.578125 193.640625 138.175781 C 194.277344 138.523438 194.917969 138.800781 195.554688 139.148438 C 195.902344 138.800781 196.195312 138.453125 196.484375 138.105469 C 195.84375 137.828125 195.265625 137.480469 194.625 137.203125 C 191.722656 135.675781 189.050781 133.9375 187.832031 131.710938 C 187.832031 131.710938 187.773438 131.644531 187.773438 131.644531 C 187.253906 131.710938 186.789062 131.851562 186.324219 132.058594 Z M 208.386719 143.875 C 212.972656 145.335938 217.675781 146.65625 222.496094 147.976562 C 222.667969 147.558594 222.84375 147.140625 223.015625 146.722656 C 218.257812 145.402344 213.554688 144.082031 209.082031 142.695312 C 208.851562 143.039062 208.617188 143.457031 208.386719 143.875 Z M 237.359375 152.214844 C 238.460938 152.5625 239.5625 152.910156 240.667969 153.257812 C 244.671875 154.578125 248.738281 155.96875 252.742188 157.636719 C 252.917969 157.21875 253.148438 156.730469 253.324219 156.316406 C 249.261719 154.648438 245.136719 153.257812 241.132812 151.9375 C 240.027344 151.589844 238.925781 151.242188 237.824219 150.894531 C 237.648438 151.378906 237.53125 151.796875 237.359375 152.214844 Z M 267.839844 166.183594 C 268.476562 166.738281 269.058594 167.296875 269.640625 167.851562 C 271.265625 169.449219 272.601562 171.1875 273.644531 173.0625 C 274.75 175.078125 275.386719 177.304688 275.675781 179.457031 C 275.734375 179.875 275.792969 180.222656 275.792969 180.640625 C 276.546875 180.777344 277.246094 180.988281 278 181.125 C 277.941406 180.710938 277.941406 180.292969 277.882812 179.875 C 277.535156 177.511719 276.78125 175.078125 275.5625 172.785156 C 274.398438 170.703125 272.832031 168.6875 271.089844 166.949219 C 270.453125 166.324219 269.8125 165.765625 269.117188 165.140625 C 268.59375 165.488281 268.1875 165.835938 267.839844 166.183594 Z M 271.324219 196.207031 C 271.265625 196.277344 271.207031 196.414062 271.148438 196.484375 C 267.839844 201.210938 263.195312 205.035156 257.910156 208.371094 C 258.433594 209.132812 258.957031 209.96875 259.535156 210.730469 C 264.996094 207.257812 269.8125 203.15625 273.238281 198.152344 C 273.296875 198.082031 273.355469 197.945312 273.414062 197.875 C 272.714844 197.320312 272.019531 196.761719 271.324219 196.207031 Z M 239.5625 217.335938 C 232.886719 219.90625 225.804688 222.058594 218.546875 223.796875 C 218.71875 224.769531 218.953125 225.8125 219.128906 226.785156 C 226.558594 224.910156 233.816406 222.753906 240.667969 220.046875 Z M 195.84375 228.316406 C 193.929688 228.59375 192.070312 228.941406 190.15625 229.21875 C 184.234375 230.121094 178.3125 230.816406 172.332031 231.441406 L 171.984375 234.710938 C 178.078125 234.082031 184.117188 233.320312 190.15625 232.414062 C 192.070312 232.136719 193.988281 231.859375 195.902344 231.511719 C 195.960938 230.398438 195.902344 229.359375 195.84375 228.316406 Z M 148.527344 233.320312 C 140.515625 233.734375 132.558594 234.015625 124.664062 234.082031 L 123.445312 237.417969 C 131.515625 237.351562 139.585938 237.070312 147.773438 236.65625 Z M 101.148438 233.804688 C 99.757812 233.734375 98.363281 233.667969 96.96875 233.597656 C 96.445312 233.597656 95.980469 233.527344 95.460938 233.527344 C 95.402344 233.527344 95.34375 233.527344 95.285156 233.527344 L 93.542969 236.863281 C 93.542969 236.863281 93.71875 236.863281 93.71875 236.863281 C 94.242188 236.863281 94.761719 236.933594 95.285156 236.933594 C 96.679688 237.003906 98.074219 237.070312 99.523438 237.140625 C 99.523438 237.140625 101.148438 233.804688 101.148438 233.804688 Z M 101.148438 233.804688 " fill-opacity="1" fill-rule="nonzero"/><g fill="#000000" fill-opacity="1"><g transform="translate(152.222132, 303.770342)"><g><path d="M 12.875 2.40625 C 10.257812 2.40625 8.082031 1.972656 6.34375 1.109375 C 4.613281 0.253906 3.300781 -0.851562 2.40625 -2.21875 C 1.507812 -3.582031 0.992188 -5.066406 0.859375 -6.671875 C 0.734375 -8.273438 0.96875 -9.828125 1.5625 -11.328125 C 2.15625 -12.835938 3.082031 -14.144531 4.34375 -15.25 C 5.613281 -16.363281 7.179688 -17.128906 9.046875 -17.546875 C 10.921875 -17.972656 13.082031 -17.878906 15.53125 -17.265625 C 15.84375 -17.179688 16.039062 -16.984375 16.125 -16.671875 C 16.207031 -16.359375 16.207031 -16.023438 16.125 -15.671875 C 16.039062 -15.328125 15.882812 -15.035156 15.65625 -14.796875 C 15.425781 -14.554688 15.144531 -14.460938 14.8125 -14.515625 C 13.039062 -14.828125 11.5 -14.707031 10.1875 -14.15625 C 8.882812 -13.613281 7.835938 -12.820312 7.046875 -11.78125 C 6.253906 -10.738281 5.757812 -9.597656 5.5625 -8.359375 C 5.375 -7.117188 5.492188 -5.914062 5.921875 -4.75 C 6.359375 -3.582031 7.144531 -2.609375 8.28125 -1.828125 C 9.425781 -1.054688 10.941406 -0.644531 12.828125 -0.59375 C 14.148438 -0.5625 15.484375 -0.726562 16.828125 -1.09375 C 18.179688 -1.457031 19.378906 -2.023438 20.421875 -2.796875 C 21.460938 -3.578125 22.15625 -4.546875 22.5 -5.703125 C 22.976562 -7.304688 23.441406 -8.957031 23.890625 -10.65625 C 24.335938 -12.351562 24.867188 -14.425781 25.484375 -16.875 C 25.546875 -17.132812 25.835938 -17.335938 26.359375 -17.484375 C 26.878906 -17.640625 27.445312 -17.738281 28.0625 -17.78125 C 28.6875 -17.832031 29.222656 -17.804688 29.671875 -17.703125 C 30.117188 -17.609375 30.300781 -17.429688 30.21875 -17.171875 C 29.789062 -15.484375 29.382812 -13.957031 29 -12.59375 C 28.625 -11.226562 28.257812 -9.929688 27.90625 -8.703125 C 27.5625 -7.484375 27.191406 -6.210938 26.796875 -4.890625 C 26.265625 -3.117188 25.28125 -1.695312 23.84375 -0.625 C 22.40625 0.4375 20.722656 1.207031 18.796875 1.6875 C 16.867188 2.164062 14.894531 2.40625 12.875 2.40625 Z M 12.65625 10.125 C 12.039062 10.125 11.53125 9.890625 11.125 9.421875 C 10.71875 8.960938 10.523438 8.425781 10.546875 7.8125 C 10.609375 7.1875 10.875 6.65625 11.34375 6.21875 C 11.820312 5.789062 12.375 5.578125 13 5.578125 C 13.695312 5.578125 14.234375 5.789062 14.609375 6.21875 C 14.992188 6.65625 15.160156 7.195312 15.109375 7.84375 C 15.054688 8.46875 14.796875 9.003906 14.328125 9.453125 C 13.859375 9.898438 13.300781 10.125 12.65625 10.125 Z M 12.65625 10.125 "/></g></g></g><g fill="#000000" fill-opacity="1"><g transform="translate(183.280743, 303.770342)"><g><path d="M 1.265625 9.109375 C 1.265625 8.660156 1.488281 8.394531 1.9375 8.3125 C 3.707031 7.945312 5.21875 7.257812 6.46875 6.25 C 7.726562 5.238281 8.789062 4.023438 9.65625 2.609375 C 10.53125 1.203125 11.25 -0.253906 11.8125 -1.765625 C 12.375 -3.285156 12.835938 -4.722656 13.203125 -6.078125 C 12.785156 -5.285156 12.265625 -4.503906 11.640625 -3.734375 C 11.023438 -2.960938 10.296875 -2.304688 9.453125 -1.765625 C 8.609375 -1.234375 7.640625 -0.953125 6.546875 -0.921875 C 5.078125 -0.898438 3.957031 -1.28125 3.1875 -2.0625 C 2.414062 -2.851562 1.957031 -3.894531 1.8125 -5.1875 C 1.675781 -6.476562 1.832031 -7.875 2.28125 -9.375 C 2.726562 -10.882812 3.414062 -12.316406 4.34375 -13.671875 C 5.5 -15.328125 6.847656 -16.617188 8.390625 -17.546875 C 9.941406 -18.484375 11.453125 -19.035156 12.921875 -19.203125 C 14.328125 -19.367188 15.851562 -19.28125 17.5 -18.9375 C 19.144531 -18.601562 20.597656 -17.875 21.859375 -16.75 C 22.003906 -16.53125 21.941406 -16.207031 21.671875 -15.78125 C 21.398438 -15.363281 21.082031 -15.003906 20.71875 -14.703125 C 20.351562 -14.410156 20.054688 -14.347656 19.828125 -14.515625 C 18.984375 -15.191406 18.046875 -15.671875 17.015625 -15.953125 C 15.992188 -16.234375 15.019531 -16.332031 14.09375 -16.25 C 12.800781 -16.132812 11.59375 -15.59375 10.46875 -14.625 C 9.34375 -13.65625 8.414062 -12.425781 7.6875 -10.9375 C 6.976562 -9.53125 6.566406 -8.191406 6.453125 -6.921875 C 6.335938 -5.648438 6.550781 -4.78125 7.09375 -4.3125 C 7.738281 -3.738281 8.628906 -3.898438 9.765625 -4.796875 C 10.910156 -5.703125 11.972656 -7.171875 12.953125 -9.203125 C 13.296875 -9.898438 13.640625 -10.6875 13.984375 -11.5625 C 14.335938 -12.4375 14.65625 -13.3125 14.9375 -14.1875 C 15.082031 -14.40625 15.363281 -14.519531 15.78125 -14.53125 C 16.207031 -14.550781 16.660156 -14.503906 17.140625 -14.390625 C 17.617188 -14.273438 18.03125 -14.125 18.375 -13.9375 C 18.726562 -13.757812 18.921875 -13.5625 18.953125 -13.34375 C 17.910156 -9.625 16.914062 -6.34375 15.96875 -3.5 C 15.03125 -0.65625 13.976562 1.734375 12.8125 3.671875 C 11.644531 5.609375 10.21875 7.101562 8.53125 8.15625 C 6.84375 9.21875 4.71875 9.804688 2.15625 9.921875 C 1.5625 9.921875 1.265625 9.648438 1.265625 9.109375 Z M 1.265625 9.109375 "/></g></g></g><g fill="#000000" fill-opacity="1"><g transform="translate(203.916145, 303.770342)"><g><path d="M -5.4375 9.921875 C -5.832031 9.921875 -6.09375 9.800781 -6.21875 9.5625 C -6.351562 9.320312 -6.363281 9.066406 -6.25 8.796875 C -6.132812 8.523438 -5.9375 8.363281 -5.65625 8.3125 C -3.882812 8 -2.40625 7.441406 -1.21875 6.640625 C -0.0390625 5.835938 0.945312 4.757812 1.75 3.40625 C 2.550781 2.0625 3.25 0.4375 3.84375 -1.46875 C 4.4375 -3.382812 5.019531 -5.625 5.59375 -8.1875 C 6.164062 -10.75 6.816406 -13.644531 7.546875 -16.875 C 7.660156 -17.414062 7.984375 -17.832031 8.515625 -18.125 C 9.054688 -18.414062 9.632812 -18.578125 10.25 -18.609375 C 10.875 -18.640625 11.394531 -18.539062 11.8125 -18.3125 C 12.238281 -18.09375 12.394531 -17.710938 12.28125 -17.171875 C 11.382812 -12.753906 10.441406 -8.882812 9.453125 -5.5625 C 8.460938 -2.25 7.3125 0.535156 6 2.796875 C 4.695312 5.066406 3.125 6.789062 1.28125 7.96875 C -0.5625 9.15625 -2.800781 9.804688 -5.4375 9.921875 Z M -5.4375 9.921875 "/></g></g></g><g fill="#000000" fill-opacity="1"><g transform="translate(215.815997, 303.770342)"><g><path d="M 2.03125 -9.15625 C 2.113281 -9.5 2.304688 -9.617188 2.609375 -9.515625 C 2.921875 -9.421875 3.050781 -9.21875 3 -8.90625 C 2.738281 -7.945312 2.609375 -7.035156 2.609375 -6.171875 C 2.609375 -5.316406 2.9375 -4.707031 3.59375 -4.34375 C 4.320312 -3.945312 5.210938 -3.648438 6.265625 -3.453125 C 7.316406 -3.265625 8.398438 -3.191406 9.515625 -3.234375 C 10.628906 -3.273438 11.628906 -3.445312 12.515625 -3.75 C 13.398438 -4.0625 14.023438 -4.515625 14.390625 -5.109375 C 14.617188 -5.503906 14.835938 -6.125 15.046875 -6.96875 C 15.253906 -7.8125 15.441406 -8.773438 15.609375 -9.859375 C 15.785156 -10.941406 15.941406 -12.050781 16.078125 -13.1875 C 16.222656 -14.320312 16.34375 -15.382812 16.4375 -16.375 C 16.53125 -17.363281 16.609375 -18.179688 16.671875 -18.828125 C 16.722656 -19.078125 16.878906 -19.226562 17.140625 -19.28125 L 19.828125 -19.546875 C 20.003906 -19.566406 20.15625 -19.519531 20.28125 -19.40625 C 20.40625 -19.300781 20.453125 -19.148438 20.421875 -18.953125 C 20.304688 -17.742188 20.128906 -16.367188 19.890625 -14.828125 C 19.660156 -13.296875 19.378906 -11.765625 19.046875 -10.234375 C 18.722656 -8.703125 18.375 -7.300781 18 -6.03125 C 17.625 -4.769531 17.222656 -3.800781 16.796875 -3.125 C 16.285156 -2.3125 15.46875 -1.644531 14.34375 -1.125 C 13.21875 -0.601562 11.972656 -0.253906 10.609375 -0.078125 C 9.242188 0.0859375 7.898438 0.0703125 6.578125 -0.125 C 5.253906 -0.320312 4.113281 -0.707031 3.15625 -1.28125 C 2.207031 -1.863281 1.617188 -2.660156 1.390625 -3.671875 C 1.222656 -4.347656 1.207031 -5.113281 1.34375 -5.96875 C 1.488281 -6.832031 1.71875 -7.894531 2.03125 -9.15625 Z M 2.03125 -9.15625 "/></g></g></g></svg>